# xmcd
#
# Track frame offsets:
#       150
#       16665
#       33291
#       50570
#       72082
#       90309
#       106148
#       124185
#       143507
#       159949
#       179892
#       202684
#
# Disc length: 2893 seconds
#
# Revision: 0
# Processed by: cddbd v1.4PL0 Copyright (c) Steve Scherf et al.
# Submitted via: CD-DA_X-Tractor v0.21
#
DISCID=8e0b4b0c
DTITLE=James Sampson - James
DYEAR=1900
DGENRE=
TTITLE0=Dream on
TTITLE1=My girl
TTITLE2=That you love me
TTITLE3=Let's stay together
TTITLE4=Separate lives
TTITLE5=First to let you know
TTITLE6=Say the word
TTITLE7=Trapped
TTITLE8=Fallen
TTITLE9=I'll be there for you
TTITLE10=Holding back the years
TTITLE11=Me and Mrs. Jones
EXTD=
EXTT0=
EXTT1=
EXTT2=
EXTT3=
EXTT4=
EXTT5=
EXTT6=
EXTT7=
EXTT8=
EXTT9=
EXTT10=
EXTT11=
PLAYORDER=
